<mxfile host="app.diagrams.net" modified="2021-05-25T09:22:21.845Z" agent="5.0 (Windows)" etag="JVuqJFt0ws2ezfOEV83L" version="14.4.6" type="github">
  <diagram id="9QRSWN0dS9cnWjK9MOJ6" name="Page-1">
    <mxGraphModel dx="868" dy="461" grid="1" gridSize="10" guides="1" tooltips="1" connect="1" arrows="1" fold="1" page="1" pageScale="1" pageWidth="827" pageHeight="1169" math="0" shadow="0">
      <root>
        <mxCell id="0" />
        <mxCell id="1" parent="0" />
        <mxCell id="aaYxnNW9G4uqMNfKjOmZ-1" value="" style="ellipse;fillColor=#000000;strokeColor=none;" vertex="1" parent="1">
          <mxGeometry x="210" y="60" width="30" height="30" as="geometry" />
        </mxCell>
        <mxCell id="aaYxnNW9G4uqMNfKjOmZ-2" value="&amp;lt;&amp;lt;actor&amp;gt;&amp;gt;&lt;br&gt;&lt;br&gt;&lt;b&gt;Actor1&lt;/b&gt;" style="text;html=1;align=center;verticalAlign=middle;dashed=0;fillColor=#ffffff;strokeColor=#000000;" vertex="1" parent="1">
          <mxGeometry x="157.5" y="150" width="135" height="60" as="geometry" />
        </mxCell>
        <mxCell id="aaYxnNW9G4uqMNfKjOmZ-3" value="Extension point 1" style="shape=note2;boundedLbl=1;whiteSpace=wrap;html=1;size=25;verticalAlign=top;align=left;spacingLeft=5;" vertex="1" parent="1">
          <mxGeometry x="360" y="80" width="140" height="60" as="geometry" />
        </mxCell>
        <mxCell id="aaYxnNW9G4uqMNfKjOmZ-4" value="Extend condition 1" style="resizeWidth=1;part=1;strokeColor=none;fillColor=none;align=left;spacingLeft=5;" vertex="1" parent="aaYxnNW9G4uqMNfKjOmZ-3">
          <mxGeometry width="140" height="25" relative="1" as="geometry" />
        </mxCell>
      </root>
    </mxGraphModel>
  </diagram>
</mxfile>
